<?xml version="1.0" encoding="UTF-8" standalone="no"?>
<svg
   version="1.1"
   viewBox="0 0 511.99999 512"
   id="svg178"
   sodipodi:docname="favicon.svg"
   width="512"
   height="512"
   inkscape:version="1.4.3 (0d15f75042, 2025-12-25)"
   xmlns:inkscape="http://www.inkscape.org/namespaces/inkscape"
   xmlns:sodipodi="http://sodipodi.sourceforge.net/DTD/sodipodi-0.dtd"
   xmlns="http://www.w3.org/2000/svg"
   xmlns:svg="http://www.w3.org/2000/svg">
  <defs
     id="defs178" />
  <sodipodi:namedview
     id="namedview178"
     pagecolor="#ffffff"
     bordercolor="#000000"
     borderopacity="0.25"
     inkscape:showpageshadow="2"
     inkscape:pageopacity="0.0"
     inkscape:pagecheckerboard="0"
     inkscape:deskcolor="#d1d1d1"
     inkscape:zoom="0.72448984"
     inkscape:cx="313.32393"
     inkscape:cy="228.43661"
     inkscape:window-width="2560"
     inkscape:window-height="1531"
     inkscape:window-x="0"
     inkscape:window-y="0"
     inkscape:window-maximized="1"
     inkscape:current-layer="svg178" />
  <path
     fill="#f9fcfe"
     d="m 403.73926,3.8134129 q 1.3615,1.3116833 3.65279,1.1124403 a 1.52753,1.494323 68.69989 0 1 1.3615,0.6143326 q 0.71395,0.9630081 2.04224,1.2452691 a 1.1124405,1.129044 17.300137 0 1 0.79697,1.52753 q -7.47162,18.4133781 -16.2051,36.4614781 -38.32109,79.165897 -44.61384,91.950657 -1.90942,3.86864 -6.19315,10.95837 a 2.4739347,2.4407273 15.399864 0 1 -2.10865,1.17886 l -16.07228,-0.11623 a 16.487362,20.522036 80.600005 0 0 -2.88902,0.16604 q -0.31547,0.0498 -2.90563,0.73055 -1.19546,0.31547 -1.74337,-0.61433 -0.4483,-0.74716 -0.53132,-2.02564 5.64522,-15.60737 11.0912,-31.46379 11.70553,-34.053958 26.20046,-76.160653 4.69881,-13.648149 7.90331,-20.937124 c 0.96301,-2.158467 2.12526,-3.619582 3.18789,-5.761445 a 6.0769129,5.944085 86.899982 0 1 2.02564,-2.307898 c 11.20742,-7.5380288 21.60127,-7.3055786 35.00036,-6.5584171 z"
     id="path121"
     style="stroke-width:1.66036" />
  <path
     fill="#a4c3e3"
     d="m 318.3304,147.00274 q 0.083,1.27848 0.53132,2.02564 0.54791,0.9298 1.74337,0.61433 2.59016,-0.68074 2.90563,-0.73055 a 16.487362,20.522036 80.600005 0 1 2.88902,-0.16604 l 16.07228,0.11623 a 2.4739347,2.4407273 15.399864 0 0 2.10865,-1.17886 q 4.28373,-7.08973 6.19315,-10.95837 6.29275,-12.78476 44.61384,-91.950657 8.73348,-18.0481 16.2051,-36.4614781 a 1.1124405,1.129044 17.300137 0 0 -0.79697,-1.52753 q -1.32829,-0.282261 -2.04224,-1.2452691 a 1.52753,1.494323 68.69989 0 0 -1.3615,-0.6143326 q -2.29129,0.199243 -3.65279,-1.1124403 11.47308,-0.4150898 17.79905,8.4180181 a 3.1048711,3.0384565 24.599874 0 1 0.58112,1.510927 q 0.71396,6.458796 -0.34867,9.497253 -1.94262,5.562201 -9.86253,22.763517 -4.26712,9.264801 -10.02857,22.730312 -27.84422,65.15247 -33.25699,76.65876 -1.19546,2.52374 -3.2543,6.17653 a 1.3448907,1.3282869 16.899839 0 1 -1.26187,0.66415 c -2.10866,-0.18264 -4.06789,-1.54414 -6.4422,-1.54414 q -21.43523,0.0498 -40.18068,0.19925 a 0.64753997,0.64753989 0 0 1 -0.63094,-0.81358 q 0.38188,-1.47772 1.47772,-3.07167 z"
     id="path122"
     style="stroke-width:1.66036" />
  <path
     fill="#229ef5"
     d="m 509.17205,86.582295 -9.59687,7.189355 a 3.4701497,3.3373214 84.499982 0 0 -1.07924,1.36149 q -4.84824,10.99158 -15.20889,18.26395 a 6.1267241,5.8112556 1.5999962 0 0 -0.963,0.86339 c -5.42938,6.15993 -10.19461,10.59308 -15.39153,17.01867 q -24.63972,30.51739 -45.44402,58.66048 -19.77488,26.73177 -32.8419,40.24709 -6.57502,6.80747 -26.68197,26.63216 a 0.39848612,0.38188251 20.999944 0 0 0.29887,0.66414 l 21.70089,-0.97961 q 21.60126,0.38188 29.43816,-0.36528 16.78623,-1.61055 19.54243,-1.49432 3.86863,0.16603 7.28897,-0.96301 c 2.35771,-0.78037 6.42559,-0.28226 9.79612,-1.21207 q 4.39995,-1.19545 10.12819,-1.07923 a 4.233915,4.2837256 34.400286 0 0 1.72677,-0.33207 q 4.03467,-1.67696 8.46783,-1.26187 2.09205,-0.36528 3.05506,0.31547 a 0.96300815,0.96300803 0 0 1 0.0664,1.51092 l -7.00671,6.0105 a 0.7803686,0.84678302 73.800024 0 0 -0.29887,0.49811 q -0.5147,3.03846 -4.06787,4.53278 a 1.0958368,1.0792333 70.299851 0 1 -1.46112,-0.69735 q -0.23245,-0.76376 -0.97961,-0.89659 a 1.0792333,1.129044 35.000075 0 0 -0.81357,0.16603 q -28.85705,19.16054 -29.37175,19.4262 -4.76523,2.50713 -23.97559,16.91905 -1.92601,1.44451 -3.33732,2.63997 c -31.64644,6.07691 -59.82273,16.07227 -89.97485,28.77402 l 22.04957,-26.3665 a 0.58112563,0.58112556 0 0 0 -0.49811,-0.96301 q -7.73727,0.68075 -13.73117,0.63094 -14.92663,-0.13283 -40.81162,0.31547 -8.335,0.14943 -17.1349,-0.4483 -7.02332,-0.48151 -17.16811,-0.083 -3.80223,0.14943 -5.71164,-0.49811 a 0.36527894,0.38188253 44.300081 0 1 0,-0.71395 q 3.60298,-1.31169 5.77805,-0.92981 2.37431,0.4151 3.88524,-1.32828 7.95312,-9.11537 17.38396,-13.53193 a 11.273837,12.120619 16.400027 0 0 1.95922,-1.16225 q 43.53461,-32.47661 71.29581,-55.58881 16.27152,-13.54852 27.61177,-24.50689 8.3184,-8.03613 15.88964,-13.26626 0.9464,-0.66414 16.48736,-12.63533 c 6.4588,-4.96447 16.52057,-9.82932 23.74313,-15.7236 q 12.43609,-10.14479 19.59224,-16.03907 a 2.656574,2.7561958 77.80004 0 0 0.81357,-1.21206 l 4.1675,-13.06702 a 1.4777192,1.2950799 78.099989 0 1 0.23245,-0.4151 l 7.02332,-9.19837 a 0.54791844,0.54791837 0 0 0 -0.71395,-0.79697 l -18.19754,11.35684 q 16.38775,-11.67231 32.95813,-22.92955 5.61201,-3.80222 12.86778,-9.11537 6.14333,-4.49957 13.21646,-8.600658 5.47918,-3.187886 15.2919,-10.294225 a 0.96300815,0.96300803 0 0 1 1.49433,1.046026 q -0.84679,3.021855 -2.78941,3.652792 z"
     id="path123"
     style="stroke-width:1.66036" />
  <path
     fill="#026cc8"
     d="m 509.17205,86.582295 q -0.89659,2.739588 -2.7728,4.698813 -2.806,2.955438 -3.43694,4.184104 -1.17886,2.324505 -3.2211,4.051276 a 0.87999013,2.141863 67.500004 0 0 -0.23244,0.232448 L 487.6704,115.25669 a 0.1328287,0.26565742 63.400005 0 0 -0.0498,0.0664 q -0.58113,1.07923 -2.90563,4.20071 -50.74057,68.04149 -101.03284,133.7751 -0.89659,1.17885 0.28226,3.20449 L 362.2635,257.483 a 0.39848612,0.38188251 20.999944 0 1 -0.29886,-0.66414 q 20.10694,-19.82469 26.68196,-26.63216 13.06703,-13.51532 32.84191,-40.24709 20.80429,-28.14309 45.44402,-58.66048 c 5.19692,-6.42559 9.96215,-10.85874 15.39152,-17.01867 a 6.1267241,5.8112556 1.5999962 0 1 0.96301,-0.86339 q 10.36064,-7.27237 15.20889,-18.26395 a 3.4701497,3.3373214 84.499982 0 1 1.07923,-1.36149 z"
     id="path124"
     style="stroke-width:1.66036" />
  <path
     fill="#44c7fe"
     d="m 312.18707,328.99467 q -23.09559,26.79819 -29.32193,34.48564 -10.52668,13.01721 -25.66915,34.96716 -9.51386,2.95544 -13.06703,5.0807 -5.82786,3.48675 -7.53803,6.27616 -5.81126,9.44744 -14.07984,15.77341 c 11.37346,-16.05568 22.91295,-33.95434 33.57246,-48.43267 q 11.65571,-15.85642 23.49408,-31.58002 0.54791,-0.74716 10.11158,-14.42852 5.0807,-7.25577 11.14101,-13.64815 l 1.4279,-0.97961 q 0.68075,-0.4483 0.49811,-0.71396 -0.36528,-0.54791 -1.04602,-0.59773 -23.27824,-1.47771 -43.4848,-0.18264 -9.81272,-0.33207 -20.40581,-0.13282 -0.31547,0.0166 -1.21207,0.44829 a 4.2837259,4.2007076 29.099844 0 1 -1.51092,0.41509 q -10.04517,0.81358 -15.79001,0.79698 c -10.46026,-0.0664 -17.5666,0.99621 -28.82384,2.24148 a 0.79697229,0.79697219 0 0 1 -0.66414,-1.36149 q 1.89281,-1.90942 3.56978,-3.15469 c 9.53046,-7.08973 19.476,-16.12208 27.96044,-22.97936 q 36.14601,-29.28873 95.35441,-71.7109 c 13.16665,-9.43083 34.22,-25.55291 56.73446,-41.95725 18.34697,-13.3659 37.0094,-27.13027 62.69515,-44.79649 l 18.19754,-11.35684 a 0.54791844,0.54791837 0 0 1 0.71395,0.79697 l -7.02332,9.19837 a 1.4777192,1.2950799 78.099989 0 0 -0.23245,0.4151 l -4.1675,13.06702 a 2.656574,2.7561958 77.80004 0 1 -0.81357,1.21206 q -7.15615,5.89428 -19.59224,16.03907 c -7.22256,5.89428 -17.28433,10.75913 -23.74313,15.7236 q -15.54096,11.97119 -16.48736,12.63533 -7.57124,5.23013 -15.88964,13.26626 -11.34025,10.95837 -27.61177,24.50689 -27.7612,23.1122 -71.29581,55.58881 a 11.273837,12.120619 16.400027 0 1 -1.95922,1.16225 q -9.43084,4.41656 -17.38396,13.53193 -1.51093,1.74338 -3.88524,1.32828 -2.17507,-0.38188 -5.77805,0.92981 a 0.36527894,0.38188253 44.300081 0 0 0,0.71395 q 1.90941,0.64754 5.71164,0.49811 10.14479,-0.39849 17.16811,0.083 8.7999,0.59773 17.1349,0.4483 25.88499,-0.4483 40.81162,-0.31547 5.9939,0.0498 13.73117,-0.63094 a 0.58112563,0.58112556 0 0 1 0.49811,0.96301 z"
     id="path125"
     style="stroke-width:1.66036" />
  <path
     fill="#fdde2a"
     d="m 160.91177,236.24703 q 4.94787,-6.24295 9.82933,-13.93041 0.86338,-1.34489 10.36064,-11.0912 a 5.495788,5.4127692 13.699892 0 1 2.27469,-1.3615 q 12.08741,-3.66939 17.50018,-4.39995 15.67379,-2.12526 39.25089,-4.74861 7.08973,-0.78037 13.73116,-0.86339 a 2.4573311,2.4573308 0 0 0 2.2747,-1.57734 l 11.19081,-29.25552 a 4.0844829,4.0678788 5.0998441 0 1 3.08827,-2.57356 q 13.21646,-2.34111 32.16115,-1.29508 40.6954,2.29129 50.95642,3.65279 1.27847,0.18265 6.37578,1.29508 a 1.1456477,1.129044 32.099779 0 1 0.4649,2.00903 q -31.11513,24.24124 -57.26578,45.19497 -8.41802,6.74105 -18.89488,7.17274 -16.60359,0.71396 -28.97327,1.01283 -6.29276,0.16603 -9.91234,0.71395 c -8.15236,1.24527 -16.12209,0.69735 -24.09181,1.90941 -5.96068,0.87999 -11.90477,0.56452 -18.77866,1.74338 q -19.64204,3.40373 -22.56428,3.83542 c -6.9569,1.04603 -12.25344,3.12148 -18.38017,3.686 a 0.69735076,0.69735067 0 0 1 -0.59773,-1.12904 z"
     id="path127"
     style="stroke-width:1.66036" />
  <path
     fill="#fdc301"
     d="m 268.68567,240.48095 c -3.88524,4.15089 -9.19839,6.9569 -17.91527,12.45269 a 2.7894029,2.5403488 17.899978 0 1 -0.76377,0.34867 l -5.18032,1.51093 a 1.5607373,1.8928091 39.300018 0 1 -0.33207,0.0664 c -6.89049,0.28226 -13.10023,1.3947 -20.356,1.95923 q -31.71286,2.44072 -49.79416,5.32975 -7.80369,1.24527 -30.26835,6.50861 a 2.3743132,2.3577093 16.199726 0 0 -1.09583,0.59773 q -1.51093,1.46111 -2.95544,0.53131 a 1.0460261,1.0294224 31.099802 0 1 -0.34867,-1.3781 q 6.47539,-11.22402 15.2919,-19.37639 a 3.3705286,3.3041138 15.399908 0 1 1.34489,-0.74716 c 11.19082,-3.07166 23.06239,-4.43316 36.72714,-6.14333 q 11.17421,-1.4113 14.91002,-0.9298 1.31168,0.16604 14.92663,-1.19546 5.16371,-0.51471 29.68721,0.0332 c 4.01807,0.083 15.57417,-0.83018 15.92285,-0.66414 a 0.69735076,0.69735067 0 0 1 0.19924,1.09584 z"
     id="path139"
     style="stroke-width:1.66036" />
  <path
     fill="#025cb4"
     d="m 196.22761,465.29351 q 11.5893,-7.77048 19.29337,-15.15908 13.21645,-12.68513 21.35222,-19.52581 a 4.5493828,4.7320229 85.900013 0 0 0.73055,-0.81358 l 15.02625,-21.38542 15.44134,-1.29507 a 4.3667438,4.4331577 19.900152 0 0 2.82261,-1.3449 q 5.79465,-6.09351 13.29947,-11.32364 7.60445,-5.29655 13.864,-10.65951 16.50397,-14.19607 32.26077,-26.53253 10.59309,-8.30179 32.49323,-26.30008 19.19375,-15.79001 39.3505,-30.73324 1.41131,-1.19546 3.33732,-2.63997 19.21036,-14.41192 23.97559,-16.91905 0.5147,-0.26566 29.37175,-19.4262 a 1.0792333,1.129044 35.000075 0 1 0.81357,-0.16603 q 0.74716,0.13283 0.97961,0.89659 a 1.0958368,1.0792333 70.299851 0 0 1.46112,0.69735 q 3.55317,-1.49432 4.06787,-4.53278 a 0.7803686,0.84678302 73.800024 0 1 0.29887,-0.49811 l 7.00671,-6.0105 a 0.96300815,0.96300803 0 0 0 -0.0664,-1.51092 q -0.96301,-0.68075 -3.05506,-0.31547 4.33354,-2.17507 9.29801,-2.50714 a 0.59772923,0.59772916 0 0 1 0.4483,1.02942 q -0.83018,0.79697 -1.49432,2.27469 a 3.6859963,3.7690147 78.400063 0 1 -0.79698,1.17885 q -5.87767,6.11013 -13.69796,14.01343 -1.67696,1.69357 -3.7026,3.13808 a 6.7244534,6.8074708 3.4000346 0 0 -1.14565,1.02943 c -9.08216,10.29422 -18.9945,18.74544 -28.40874,28.04345 q -5.86106,5.79465 -15.57416,12.70174 -10.06178,7.17275 -19.59224,13.51532 c -15.80662,10.52668 -29.88646,20.92053 -42.5716,29.85326 q -35.76413,25.20424 -81.02551,61.46647 c -17.64962,14.14626 -40.51276,30.35135 -58.87633,46.83872 q -3.65279,3.2543 -6.49201,6.55841 -2.82261,3.27091 -6.07691,6.0105 -5.1139,4.31694 -6.39238,5.67843 -13.53192,14.49494 -27.91063,27.79441 a 0.4482969,0.44829684 0 0 1 -0.58113,0.0332 l -0.54792,-0.4317 a 0.11622512,0.11622511 0 0 1 0.0166,-0.19924 q 2.44073,-1.3781 2.60676,-3.47015 a 1.6935659,1.7433768 66.400091 0 1 0.36528,-0.89659 q 10.84215,-13.98023 13.34929,-18.34697 4.20071,-7.35539 7.47161,-10.85874 1.49433,-1.61055 1.97583,-2.47394 1.02942,-1.87621 1.69357,-2.65658 1.8762,-2.14186 3.53656,-3.81882 z"
     id="path140"
     style="stroke-width:1.66036" />
  <path
     fill="#fdc301"
     d="m 200.22907,434.97536 -11.5893,15.05945 a 3.0052495,2.9720421 23.599763 0 1 -2.88903,1.11244 l -40.2803,-7.07313 a 2.7894026,2.7727994 89.49999 0 1 -2.24149,-2.20827 q -1.29508,-6.75765 1.79319,-13.86399 c 6.19314,-14.29569 13.18325,-26.91442 18.09791,-40.81163 q 0.94641,-2.67317 6.67464,-14.71077 4.30033,-8.99915 6.9403,-15.70699 a 0.25249054,0.25249051 0 0 0 -0.4483,-0.23245 c -5.84446,8.46782 -10.6761,18.16432 -16.50396,26.18385 q -11.87157,16.28812 -15.93944,21.05335 -11.62252,13.58174 -16.08888,19.75827 l -12.20364,17.16811 q -17.948484,-3.13807 -35.315836,-6.35917 -0.18264,-0.0332 -7.006715,-0.66415 -4.283724,-0.39848 -6.674642,-2.73958 3.636183,-2.52375 7.421804,-6.54182 11.5727,-12.28666 20.156759,-24.65633 c 8.96594,-12.91759 13.26627,-18.09791 20.45562,-30.26835 q 5.529,-9.3312 14.3455,-20.47221 a 0.46490049,0.46490043 0 0 0 -0.0664,-0.63094 l -0.083,-0.0498 a 0.33207176,0.34867535 44.000073 0 0 -0.4649,0.0166 q -4.20071,4.2007 -8.25199,10.41045 -3.43693,5.24672 -8.05273,10.42704 -29.454775,33.15737 -67.560012,58.22879 a 3.0384567,3.0550602 36.800631 0 1 -2.523746,0.36528 L 0.32185776,415.39973 A 0.44829688,0.46490046 39.900097 0 1 0.2554434,414.55295 Q 14.600944,407.18096 28.481545,396.7539 47.857933,382.17595 63.38229,366.48556 97.120786,332.3652 122.09258,293.42978 c 3.30412,-5.14711 8.05275,-12.45268 14.19607,-13.79757 q 18.61262,-4.08449 39.48334,-6.57502 27.24649,-3.2377 47.10438,-4.98108 2.20828,-0.19924 3.93505,0.26566 a 0.97961175,0.97961163 0 0 1 0.33207,1.71017 q -23.01258,17.91526 -41.6086,35.38224 -4.28372,4.01807 -9.87913,8.65046 -3.48675,2.87242 -9.58027,8.93273 c -1.52753,1.51093 -4.1509,2.15847 -4.73202,3.86864 a 0.81357588,0.83017933 12.500075 0 0 0.68075,1.07923 q 1.56073,0.18264 3.2875,0.41509 c 8.94934,1.17886 17.66623,0.83018 24.0254,1.34489 15.40813,1.22867 23.75973,1.07924 41.25992,1.54414 10.36064,0.28226 20.85411,1.89281 30.88267,1.54413 a 1.2618726,1.1622511 47.399956 0 1 0.19925,0.0166 l 7.23916,0.97961 a 0.97961173,0.96300805 24.099844 0 1 0.61433,1.59395 c -3.56977,4.1841 -9.64668,10.95837 -13.83079,17.38395 q -7.8701,12.10401 -22.34843,32.99133 -11.77194,16.96886 -33.12416,49.19643 z"
     id="path145"
     style="stroke-width:1.66036" />
  <path
     fill="#097ee0"
     d="m 402.16192,300.22065 q -20.15675,14.94323 -39.3505,30.73324 -21.90014,17.99829 -32.49323,26.30008 -15.7568,12.33646 -32.26077,26.53253 -6.25955,5.36296 -13.864,10.65951 -7.50482,5.23013 -13.29947,11.32364 a 4.3667438,4.4331577 19.900152 0 1 -2.82261,1.3449 l -15.44134,1.29507 4.56599,-9.96215 q 15.14247,-21.94995 25.66915,-34.96716 6.22634,-7.68745 29.32193,-34.48564 c 30.15212,-12.70175 58.32841,-22.69711 89.97485,-28.77402 z"
     id="path150"
     style="stroke-width:1.66036" />
  <path
     fill="#026cc8"
     d="m 302.25812,316.50877 q -2.14186,0.34867 -2.62336,-0.26566 -21.06995,1.74338 -41.40935,-1.22867 20.20656,-1.29507 43.4848,0.18264 0.68074,0.0498 1.04602,0.59773 0.18264,0.26566 -0.49811,0.71396 z"
     id="path155"
     style="stroke-width:1.66036" />
  <path
     fill="#025cb4"
     d="m 302.25812,316.50877 -1.4279,0.97961 q 0.39848,-0.18264 -1.19546,-1.24527 0.4815,0.61433 2.62336,0.26566 z"
     id="path156"
     style="stroke-width:1.66036" />
  <path
     fill="#d78801"
     d="m 398.64196,461.19242 q 10.32743,1.87621 20.04053,-0.86338 a 1.2286656,1.2286654 0 0 0 0.78037,-1.72678 c -3.61958,-7.25576 -8.61726,-14.16286 -11.5561,-21.25258 q -3.30411,-7.98633 -4.13429,-10.87535 -6.95691,-24.22464 -6.15993,-54.07789 0.4483,-17.18471 0.66414,-18.33035 a 1.0792333,1.0958368 13.500107 0 0 -0.74716,-1.22867 q -2.29129,-0.74716 -2.90563,-2.14186 a 1.7267732,1.726773 0 0 1 0.31547,-1.8596 q 11.02478,-11.95459 23.41106,-16.6368 a 1.9924305,1.9758271 84.799923 0 0 1.24527,-1.51093 l 0.18264,-1.01281 a 0.78036859,0.76376509 83.399962 0 0 -1.06263,-0.84679 l -4.64901,1.99243 q 3.2211,-3.07166 7.07313,-4.79844 a 0.63093637,0.63093629 0 0 1 0.87999,0.71396 l -1.61054,7.15614 a 8.7832979,10.011963 48.700027 0 0 -0.21585,1.66036 c 0.16603,5.29655 -0.0996,13.69796 -0.79697,20.85411 q -0.99622,10.16139 -0.4151,14.77719 1.47772,11.73873 1.31169,23.59369 a 17.965082,18.214136 39.700256 0 0 0.29887,3.45355 q 1.01282,5.56221 1.97582,13.61495 c 3.08827,25.9016 12.65194,50.9398 31.38079,69.63544 a 3.3207174,3.3705286 76.900106 0 0 1.32828,0.81358 q 1.47772,0.4815 2.22489,1.07923 a 0.53131484,0.53131477 0 0 1 -0.26567,0.9298 c -12.93419,1.52753 -25.81857,-3.686 -38.86899,-9.03235 q -11.82176,-4.83165 -19.72507,-14.07985 z"
     id="path161"
     style="stroke-width:1.66036" />
  <path
     fill="#fdc301"
     d="m 398.64196,461.19242 q -11.22403,-11.82175 -19.01111,-26.4329 -1.09584,-2.05884 -1.74338,-6.9071 a 0.87999022,0.87999011 0 0 0 -0.99621,-0.76376 l -0.0996,0.0166 a 0.86338662,0.86338651 0 0 0 -0.73056,1.01282 q 1.95923,9.96215 3.05506,16.73641 1.11244,6.92369 6.64144,17.63301 l 0.18263,2.68978 a 1.212062,1.2120618 0 0 1 -0.81357,1.22866 q -6.97351,2.42413 -15.30851,2.78941 -9.81272,0.43169 -18.11452,-0.53132 -2.72298,-10.44366 -2.97204,-13.26627 -0.29886,-3.37052 -1.52753,-12.02099 -1.75998,-12.36967 -0.33207,-31.97851 -5.0807,4.6158 -6.09352,6.19314 -6.55841,10.24441 -9.49725,16.71982 -1.56074,3.43694 -7.60444,15.79 -3.28751,6.74106 -6.95691,16.05567 -0.38188,0.97961 -0.19924,1.71017 0.21585,0.9464 0.0166,1.49433 a 1.5275302,1.4113049 8.3999869 0 1 -1.36149,0.92979 l -7.27238,0.28226 -21.99975,-2.42412 q -3.33732,-8.45123 -2.87242,-18.41338 a 0.59772916,0.58112563 76.599943 0 0 -0.87999,-0.54792 q -0.54792,0.31547 -0.63093,1.04603 -0.81358,8.13576 1.79318,17.83225 -23.1288,-0.89659 -45.11195,-5.5788 a 8.2353796,8.3848121 49.200197 0 0 -2.55695,-0.16604 q -4.39996,0.39849 -4.06788,-1.31168 16.60359,-12.98401 33.43963,-25.20424 c 15.24209,-11.05799 30.51739,-22.99597 46.09156,-34.10377 q 50.87339,-36.34526 102.95885,-70.88071 l 4.64901,-1.99244 a 0.78036859,0.76376509 83.399962 0 1 1.06263,0.84679 l -0.18264,1.01282 a 1.9924305,1.9758271 84.799923 0 1 -1.24527,1.51093 q -12.38628,4.6822 -23.41106,16.63679 a 1.7267732,1.726773 0 0 0 -0.31547,1.8596 q 0.61434,1.3947 2.90563,2.14186 a 1.0792333,1.0958368 13.500107 0 1 0.74716,1.22867 q -0.21585,1.14565 -0.66414,18.33035 -0.79698,29.85325 6.15993,54.07789 0.83018,2.88903 4.13429,10.87536 c 2.93884,7.08972 7.93652,13.99681 11.5561,21.25258 a 1.2286656,1.2286654 0 0 1 -0.78037,1.72677 q -9.7131,2.73959 -20.04053,0.86339 z"
     id="path162"
     style="stroke-width:1.66036" />
  <path
     fill="#a05601"
     d="m 200.22907,434.97536 q -10.60969,17.84886 -21.93334,35.06678 c -2.40752,3.66939 -4.13429,2.97204 -7.73727,2.63997 q -0.4483,-0.0498 -13.06702,-3.55317 a 3.1878887,3.1712855 76.699693 0 1 -1.49433,-0.9298 l -5.92748,-6.70785 a 1.2452692,1.5109264 5.7000037 0 1 -0.19924,-0.29887 q -3.53657,-7.23916 -5.72824,-11.45648 c -1.79319,-3.47014 -3.17129,-8.70026 -2.7562,-12.78475 a 0.41508972,0.41508967 0 0 0 -0.68074,-0.34867 c -7.8203,6.80746 -7.52143,14.19605 -1.94262,21.88352 q 0.87999,1.19546 2.98864,5.24673 a 0.79697229,0.79697219 0 0 1 -0.91319,1.14565 l -16.1553,-4.1343 a 1.3614942,1.5939445 67.000016 0 1 -0.31546,-0.0996 c -4.00147,-1.75998 -8.73349,-2.63997 -11.93798,-3.63618 Q 85.265821,448.50728 59.314409,437.33308 a 1.1622511,1.1788547 41.600251 0 1 -0.116224,-2.09206 l 7.355392,-4.30032 q 2.390918,2.3411 6.674642,2.73958 6.824075,0.63094 7.006715,0.66415 17.367352,3.2211 35.315836,6.35917 l 11.83836,2.3411 a 2.058845,2.0754484 24.200334 0 0 2.04224,-0.78036 l 1.74338,-2.27469 a 0.33207178,0.33207174 0 0 1 0.59773,0.19924 v 2.17507 a 0.7471615,0.74716141 0 0 0 1.3781,0.41509 q 2.806,-4.23392 5.1139,-5.79465 a 1.7599802,1.8097912 74.400067 0 0 0.79697,-1.3781 q 0.0664,-1.22867 0.4649,-2.14186 7.72067,-17.5832 14.7938,-28.92345 a 3.8022215,4.316933 67.00002 0 0 0.39849,-0.83018 l 5.69503,-16.40435 a 0.53131484,0.53131477 0 0 0 -0.9298,-0.49811 q -10.6263,14.01343 -20.09034,24.35747 c -3.38714,3.686 -6.39239,8.3184 -10.36065,13.4323 a 0.79697224,0.81357583 44.600174 0 1 -1.26187,0.0166 q -0.34867,-0.4483 -0.0166,-1.07923 4.46637,-6.17654 16.08888,-19.75827 4.06788,-4.76523 15.93945,-21.05336 c 5.82785,-8.01953 10.6595,-17.71603 16.50396,-26.18385 a 0.25249284,0.25249281 0 0 1 0.4483,0.23246 q -2.63997,6.70784 -6.9403,15.70698 -5.72824,12.0376 -6.67464,14.71078 c -4.91467,13.8972 -11.90478,26.51593 -18.09791,40.81162 q -3.08827,7.10634 -1.79319,13.864 a 2.7894026,2.7727994 89.49999 0 0 2.24148,2.20827 l 40.28031,7.07313 a 3.0052495,2.9720421 23.599763 0 0 2.88902,-1.11245 z"
     id="path166"
     style="stroke-width:1.66036" />
  <path
     fill="#d78801"
     d="m 115.55077,440.7036 12.20364,-17.16811 q -0.33207,0.63094 0.0166,1.07924 a 0.79697224,0.81357583 44.600174 0 0 1.26187,-0.0166 c 3.96826,-5.11391 6.9735,-9.74631 10.36064,-13.43231 q 9.46404,-10.34403 20.09034,-24.35746 a 0.53131484,0.53131477 0 0 1 0.9298,0.49811 l -5.69503,16.40434 a 3.8022215,4.316933 67.00002 0 1 -0.39849,0.83018 q -7.07312,11.34026 -14.79379,28.92346 -0.39849,0.91319 -0.4649,2.14186 a 1.7599802,1.8097912 74.400067 0 1 -0.79698,1.3781 q -2.30789,1.56073 -5.1139,5.79465 a 0.7471615,0.74716141 0 0 1 -1.3781,-0.41509 v -2.17507 a 0.33207178,0.33207174 0 0 0 -0.59773,-0.19924 l -1.74337,2.27469 a 2.058845,2.0754484 24.200334 0 1 -2.04225,0.78035 z"
     id="path170"
     style="stroke-width:1.66036" />
  <path
     fill="#229ef5"
     d="m 257.19599,398.44747 -4.56599,9.96215 -15.02625,21.38542 a 4.5493828,4.7320229 85.900013 0 1 -0.73055,0.81358 q -8.13577,6.84068 -21.35222,19.52581 -7.70407,7.3886 -19.29337,15.15908 l 26.28348,-39.71577 q 8.26858,-6.32597 14.07984,-15.77341 1.71017,-2.78941 7.53803,-6.27616 3.55317,-2.12526 13.06703,-5.0807 z"
     id="path171"
     style="stroke-width:1.66036" />
  <path
     fill="#d78801"
     d="m 346.87197,411.39827 q -1.29508,9.92894 -4.33354,21.21938 -4.11769,15.22549 -1.8596,34.76791 -2.60676,4.18411 -13.19985,3.95165 -9.79612,-0.19924 -19.57564,-0.76376 l 7.27238,-0.28226 a 1.5275302,1.4113049 8.3999869 0 0 1.36149,-0.9298 q 0.19925,-0.54792 -0.0166,-1.49432 -0.18264,-0.73056 0.19924,-1.71017 3.6694,-9.31462 6.95691,-16.05567 6.0437,-12.35306 7.60444,-15.79001 2.93884,-6.4754 9.49725,-16.71981 1.01282,-1.57734 6.09352,-6.19314 z"
     id="path175"
     style="stroke-width:1.66036" />
  <path
     fill="#a05601"
     d="m 231.57665,461.00979 q -0.33208,1.71016 4.06788,1.31168 a 8.2353796,8.3848121 49.200197 0 1 2.55695,0.16603 q 21.98315,4.68221 45.11195,5.57881 4.46637,19.84129 23.06239,30.78305 a 0.84678303,0.84678292 0 0 1 -0.36528,1.57734 q -2.35771,0.19925 -4.68221,0.0664 -35.91357,-2.12526 -70.93054,-12.50251 -3.78562,-1.11243 -10.36063,-3.7026 -4.96448,-1.95922 -10.49348,-3.75241 a 2.1418628,2.0754485 52.39989 0 0 -0.78037,-0.11622 l -0.66414,0.0332 a 1.2618727,1.2618725 0 0 1 -0.78037,-2.2913 z"
     id="path176"
     style="stroke-width:1.66036" />
  <path
     fill="#a05601"
     d="m 351.70361,468.66404 q 8.3018,0.96301 18.11452,0.53131 8.335,-0.36528 15.30851,-2.7894 a 1.212062,1.2120618 0 0 0 0.81357,-1.22866 l -0.18263,-2.68979 q 9.81272,13.33268 24.37406,20.12355 7.77049,3.61958 12.98401,5.5622 a 1.3614943,1.3614941 0 0 1 -0.18264,2.60677 q -20.12355,4.46637 -40.84483,7.22256 -2.44072,0.31547 -5.5622,-1.59394 -16.68661,-10.19461 -24.82237,-27.7446 z"
     id="path177"
     style="stroke-width:1.66036" />
  <path
     fill="#a05601"
     d="m 285.90359,468.14933 21.99975,2.42412 q 9.77952,0.56452 19.57564,0.76376 10.59309,0.23246 13.19985,-3.95165 1.19546,2.10866 1.89281,6.27616 a 7.953119,7.9863257 25.400667 0 0 0.9298,2.62337 q 6.72445,11.77194 17.35075,20.75448 a 0.63093637,0.63093629 0 0 1 -0.14943,1.06263 q -2.17507,1.01282 -3.78562,1.26187 c -7.95312,1.27848 -18.19753,1.44451 -29.02307,1.75998 -10.39385,0.31547 -15.7402,-3.93504 -24.44049,-10.46026 q -11.65571,-8.76669 -17.54999,-22.51446 z"
     id="path178"
     style="stroke-width:1.66036" />
</svg>
